Coordinates
version=1
nRows=22
nColumns=24
inDegrees=yes

Units are S.I. units (second, meters, Newtons, ...)
Angles are in degrees.

endheader
time	pelvis_tilt	pelvis_list	pelvis_rotation	pelvis_tx	pelvis_ty	pelvis_tz	hip_flexion_r	hip_adduction_r	hip_rotation_r	knee_angle_r	ankle_angle_r	subtalar_angle_r	mtp_angle_r	hip_flexion_l	hip_adduction_l	hip_rotation_l	knee_angle_l	ankle_angle_l	subtalar_angle_l	mtp_angle_l	lumbar_extension	lumbar_bending	lumbar_rotation
      1.41633333	      8.27144077	     -1.03684627	     -4.01514326	      0.49430094	      1.03418094	      0.34898914	      9.41705597	      2.23473961	      2.37206300	    -21.87673881	      5.22446656	    -13.48103982	     -1.54588787	    -22.22662509	      6.08866105	      1.78534517	      0.51904019	      3.93476397	    -12.92194386	     -7.58649779	    -21.32789510	      8.71328591	     -6.13830652
      1.42050000	      8.13970033	     -1.07012206	     -3.99317778	      0.49933963	      1.03375029	      0.34901123	      9.43782925	      2.33303886	      2.30167426	    -20.11850322	      4.91251872	    -13.23216861	     -1.51377344	    -22.43987610	      6.04140878	      1.61460124	      0.62975943	      3.90817688	    -12.64134128	     -7.47833437	    -21.21640142	      8.81397422	     -6.22768163
      1.42466667	      7.93872488	     -1.03671023	     -4.00802442	      0.50439920	      1.03314499	      0.34905887	      9.58185010	      2.35734943	      2.17629688	    -18.47905637	      4.65508171	    -12.77098984	     -1.49691221	    -22.58210043	      6.07431215	      1.49743779	      0.76245054	      3.77880438	    -12.49205274	     -7.44031420	    -21.00578227	      8.80494706	     -6.21297605
      1.42883333	      7.76209222	     -1.01742001	     -4.00014812	      0.50948922	      1.03256281	      0.34907755	      9.66975422	      2.39575493	      2.02631137	    -16.81529620	      4.37145687	    -12.32964563	     -1.47299045	    -22.73669305	      6.08639960	      1.39529368	      0.85831813	      3.68786844	    -12.33103654	     -7.39482376	    -20.82578239	      8.82952495	     -6.22446087
      1.43300000	      7.65065610	     -1.01824335	     -3.97035047	      0.51458261	      1.03203237	      0.34909221	      9.65317738	      2.45854071	      1.88697188	    -15.12076551	      4.06403300	    -11.98693595	     -1.38776681	    -22.93753757	      6.07173209	      1.26471533	      0.89619318	      3.67468289	    -12.06385033	     -7.26008937	    -20.74237396	      8.89790805	     -6.33914649
      1.43716667	      7.48225473	     -0.97256147	     -3.97723918	      0.51972427	      1.03138129	      0.34913357	      9.73746564	      2.47500796	      1.70540927	    -13.54533125	      3.77795761	    -11.48223254	     -1.34259668	    -23.08639327	      6.11803762	      1.16695125	      0.96245185	      3.57477854	    -11.92987876	     -7.19684269	    -20.55678643	      8.87345911	     -6.33421682
      1.44133333	      7.39432080	     -0.94450552	     -3.95387631	      0.52486056	      1.03079966	      0.34913932	      9.70754429	      2.50648562	      1.51283422	    -11.96420475	      3.52758136	    -10.99884033	     -1.22219499	    -23.30124313	      6.13916146	      1.08248475	      0.97721989	      3.54445993	    -11.71963712	     -7.04093603	    -20.48256150	      8.91679136	     -6.41346305
      1.44550000	      7.22977218	     -0.88901579	     -3.95946810	      0.53004690	      1.03008273	      0.34919711	      9.78897446	      2.52270909	      1.32032682	    -10.49312513	      3.28519027	    -10.47159714	     -1.17042022	    -23.43053550	      6.19405891	      1.01122296	      0.99006550	      3.45402902	    -11.62127926	     -6.97726202	    -20.30240936	      8.86785871	     -6.40651156
      1.44966667	      7.10440133	     -0.84217328	     -3.94370585	      0.53525888	      1.02940059	      0.34921721	      9.81789296	      2.54558804	      1.10356829	     -9.06308912	      3.07535027	     -9.92817913	     -1.10871522	    -23.58874825	      6.23591976	      0.96524347	      0.96814565	      3.39472560	    -11.51073327	     -6.90256977	    -20.16976031	      8.86095113	     -6.42558911
      1.45383333	      7.00463255	     -0.79095638	     -3.92531257	      0.54048360	      1.02871718	      0.34923235	      9.82641626	      2.56524630	      0.87932467	     -7.71002889	      2.91559494	     -9.36328139	     -1.03411280	    -23.76088388	      6.28256456	      0.92329400	      0.91687917	      3.34627499	    -11.39698019	     -6.81383435	    -20.06581765	      8.84894481	     -6.46294951
      1.45800000	      6.98743388	     -0.75035200	     -3.89349868	      0.54570774	      1.02811837	      0.34922122	      9.75586936	      2.58912245	      0.61874065	     -6.45034241	      2.89479559	     -8.66647298	     -0.79545314	    -24.01071059	      6.31815997	      0.87949542	      0.83800124	      3.35027683	    -11.19047774	     -6.52825067	    -20.07451530	      8.86820369	     -6.60733633
      1.46216667	      6.84817593	     -0.68066658	     -3.86702934	      0.55097333	      1.02735529	      0.34922299	      9.83396556	      2.59810217	      0.38806846	     -5.27752520	      2.74506168	     -8.13928457	      2.24045360	    -24.09014159	      6.37497763	      0.80269705	      0.68981054	      3.24015624	    -11.05007162	     -2.80274939	    -19.92152850	      8.83380505	     -6.60599997
      1.46633333	      6.77803845	     -0.65747356	     -3.84835151	      0.55628249	      1.02667733	      0.34923609	      9.82012212	      2.65855538	      0.20758633	     -4.15597348	      2.67407429	     -7.60356923	      2.25540113	    -24.26680046	      6.39685973	      0.79189948	      0.56934407	      3.19667214	    -11.03428985	     -2.79338001	    -19.84402843	      8.86132242	     -6.60902408
      1.47050000	      6.69014624	     -0.61920308	     -3.83542661	      0.56158975	      1.02595819	      0.34927552	      9.83985938	      2.70864982	      0.08355641	     -3.13383808	      2.64176541	     -7.07940460	      2.27155494	    -24.40959365	      6.43168395	      0.81109968	      0.41912379	      3.16237909	    -10.98573811	     -2.77646608	    -19.75903653	      8.85117205	     -6.61969095
      1.47466667	      6.66778815	     -0.58597617	     -3.78566990	      0.56690069	      1.02533259	      0.34921736	      9.81728905	      2.74801539	     -0.15647202	     -2.25641468	      2.78051238	     -6.39289709	      2.32224342	    -24.59231846	      6.45426719	      0.81579276	      0.20594120	      3.16030452	    -10.88004506	     -2.70547372	    -19.75234890	      8.88955661	     -6.70314835
      1.47883333	      6.60101106	     -0.55813696	     -3.75335370	      0.57225647	      1.02464571	      0.34920293	      9.83887593	      2.80306002	     -0.29553272	     -1.44609247	      2.85676771	     -5.84162593	      2.38134976	    -24.71778613	      6.47354088	      0.82002562	     -0.03190827	      3.15824954	    -10.80407945	     -2.60119541	    -19.67954434	      8.91315530	     -6.73409027
      1.48300000	      6.52172139	     -0.52656528	     -3.73789891	      0.57762646	      1.02395321	      0.34922908	      9.85986787	      2.86122589	     -0.29558927	     -0.68096529	      2.85956765	     -5.48130790	      2.39953261	    -24.82140155	      6.50216885	      0.84447188	     -0.28634882	      3.13677945	    -10.78886948	     -2.56679361	    -19.58629894	      8.92408705	     -6.72055498
      1.48716667	      6.52247293	     -0.54281169	     -3.67348748	      0.58302383	      1.02337899	      0.34915053	      9.81496427	      2.94990022	     -0.44306186	     -0.05714604	      3.00781494	     -4.92946836	      2.46856656	    -24.98599056	      6.46891111	      0.83181679	     -0.60191286	      3.16238656	    -10.66522299	     -2.40450140	    -19.59967878	      9.00327627	     -6.78378647
      1.49133333	      6.45290938	     -0.53072745	     -3.64658947	      0.58844321	      1.02271825	      0.34915588	      9.83136566	      3.02160597	     -0.37725451	      0.52658761	      3.03293498	     -4.64677731	      2.48816097	    -25.06754998	      6.47419809	      0.86360938	     -0.92843094	      3.14896864	    -10.66469167	     -2.35581030	    -19.52341443	      9.04216854	     -6.76887413
      1.49550000	      6.41078278	     -0.54850774	     -3.59208063	      0.59387716	      1.02210343	      0.34910228	      9.82612862	      3.11330726	     -0.34834383	      1.00573686	      3.06814788	     -4.32276923	      2.52177545	    -25.15688666	      6.44001800	      0.89484807	     -1.30587431	      3.16036966	    -10.60542584	     -2.25784039	    -19.50172113	      9.13299269	     -6.78178081
      1.49966667	      6.41233969	     -0.57026313	     -3.52026303	      0.59934255	      1.02156516	      0.34900874	      9.79005197	      3.19827270	     -0.35179128	      1.35848380	      3.18014563	     -3.97917578	      2.61373203	    -25.25478311	      6.39541235	      0.84410717	     -1.76460989	      3.21266274	    -10.40593106	     -1.94913088	    -19.48717199	      9.23788393	     -6.85668092
      1.50383333	      6.37149267	     -0.58390828	     -3.47764873	      0.60480400	      1.02098229	      0.34898704	      9.79081386	      3.28198158	     -0.16446773	      1.65373275	      3.24128568	     -3.83868379	      2.62549817	    -25.32155018	      6.37021135	      0.90238603	     -2.18423442	      3.15318150	    -10.43053129	     -1.91709921	    -19.46331776	      9.31005422	     -6.83536396
